# xmcd
#
# Track frame offsets: 
#        150
#        11280
#        22990
#        34450
#        46142
#        58420
#        83440
#        94565
#        104465
#        116262
#        127712
#        138587
#        147670
#        160230
#        171405
#        187205
#        196880
#        206727
#        218842
#        237065
#        250405
#
# Disc length: 3828 seconds
#
# Revision: 2
# Processed by: cddbd v1.5.2PL0 Copyright (c) Steve Scherf et al.
# Submitted via: ExactAudioCopy v0.95b2
#
DISCID=270ef215
DTITLE=Various Artist - More Gumbo Stew
DYEAR=1993
DGENRE=R&B
TTITLE0=Lee Dorsey - Ya Ya
TTITLE1=Wallace Johnson - Clap Your Hands
TTITLE2=Willie Tee - Always Accused
TTITLE3=Prince La La - Need You
TTITLE4=Eddie Bo - You Better Check
TTITLE5=Dr. John and Ronnie Barron - Talk That Talk
TTITLE6=Tami Lynn - World Of Dreams
TTITLE7=The Tick Tocks - Gonna Get You Yet
TTITLE8=Wallace Johnson - Peace Of Mind
TTITLE9=Joan Duvall - Two Weeks Three Days
TTITLE10=Dr. John - The Fix
TTITLE11=Barbara George - Try Me
TTITLE12=Pistol - Make Her Your Wife
TTITLE13=Willie Tee - It Was You
TTITLE14=Afo Executives - WYLD
TTITLE15=Robbie Lee - Let Me Know
TTITLE16=Alvin Robinson - Better Be Cool
TTITLE17=Alvin Robinson - I've Never Been In Love
TTITLE18=Tami Lynn - Light My Fire
TTITLE19=Alvin Robinson - We Got Love
TTITLE20=Johnny Adams - Johnny A's Blues
EXTD=Original New Orleans R&B - artists from AFO records in the 60s, m
EXTD=ost played on WYLD radio station.  Pub.  ACE records, UK.
EXTT0=
EXTT1=
EXTT2=
EXTT3=
EXTT4=
EXTT5=
EXTT6=
EXTT7=
EXTT8=
EXTT9=
EXTT10=
EXTT11=
EXTT12=
EXTT13=
EXTT14=
EXTT15=
EXTT16=
EXTT17=
EXTT18=
EXTT19=
EXTT20=
PLAYORDER=
